<?xml version="1.0" encoding="UTF-8"?>
<svg viewBox="0 0 24 24" version="1.1" xmlns="http://www.w3.org/2000/svg" xmlns:xlink="http://www.w3.org/1999/xlink" x="0px" y="0px" xml:space="preserve">
<path fill-rule="evenodd" clip-rule="evenodd" d="M19.4331 0H5.22506C5.12906 0 5.03306 -7.6592e-09 4.93706 0.096C4.64906 0.192 4.55306 0.576 4.74506 0.864L11.8491 13.44C11.9451 13.536 11.9451 13.632 12.0411 13.632C12.3291 13.824 12.7131 13.728 12.8091 13.44L19.9131 0.864C20.0091 0.768 20.0091 0.672 20.0091 0.576C20.0091 0.288 19.7211 0 19.4331 0ZM7.33706 3.456C7.72106 3.264 8.10506 3.072 8.58506 3.072C9.64106 3.072 10.5051 3.936 10.5051 4.896C10.5051 5.664 9.92906 6.336 9.25706 6.624L7.33706 3.456ZM12.3291 12.192L10.5051 8.928C10.7931 8.736 11.2731 8.544 11.6571 8.544C12.6171 8.544 13.3851 9.12 13.5771 9.984L12.3291 12.192ZM15.2091 7.008C14.3451 6.816 13.6731 6.048 13.6731 5.184C13.6731 4.128 14.5371 3.36 15.5931 3.36C16.0731 3.36 16.5531 3.552 16.9371 3.84L15.2091 7.008ZM17.4171 3.072C16.9371 2.688 16.3611 2.496 15.6891 2.496C14.1531 2.496 12.9051 3.744 12.9051 5.184C12.9051 6.432 13.6731 7.392 14.8251 7.776L14.1531 9.024C13.6731 8.16 12.7131 7.68 11.6571 7.68C11.0811 7.68 10.5051 7.872 10.0251 8.16L9.64106 7.392C10.6011 7.008 11.3691 6.048 11.3691 4.896C11.3691 3.36 10.1211 2.208 8.58506 2.208C8.00906 2.208 7.43306 2.4 6.95306 2.688L5.99306 1.056H18.5691L17.4171 3.072Z" fill="black"/>
<path fill-rule="evenodd" clip-rule="evenodd" d="M19.0491 5.952L18.3771 7.2C20.1051 8.832 21.2571 11.136 21.2571 13.728C21.2571 18.624 17.2251 22.656 12.3291 22.656C7.43306 22.656 3.40106 18.624 3.40106 13.728C3.40106 11.136 4.55306 8.832 6.28106 7.2L5.51306 5.952C3.30506 7.872 1.96106 10.656 1.96106 13.728C1.96106 19.392 6.56906 24 12.2331 24C17.8971 24 22.5051 19.392 22.5051 13.728C22.6011 10.656 21.2571 7.872 19.0491 5.952Z" fill="black"/>
<path fill-rule="evenodd" clip-rule="evenodd" d="M14.8251 13.44V13.632C14.8251 15.072 13.6731 16.224 12.2331 16.224C10.7931 16.224 9.64106 15.072 9.64106 13.632V13.44L8.77706 11.808C8.58506 12.384 8.39306 13.056 8.39306 13.728C8.39306 15.84 10.1211 17.664 12.3291 17.664C14.4411 17.664 16.2651 15.936 16.2651 13.728C16.2651 13.056 16.0731 12.48 15.7851 11.904L14.8251 13.44Z" fill="black"/>
<path fill-rule="evenodd" clip-rule="evenodd" d="M16.7451 10.08C17.5131 11.04 17.9931 12.288 17.9931 13.728C17.9931 16.896 15.4011 19.488 12.2331 19.488C9.06506 19.488 6.47306 16.896 6.47306 13.728C6.47306 12.384 6.95306 11.136 7.72106 10.08L7.14506 8.832C5.99306 10.08 5.22506 11.808 5.22506 13.728C5.22506 17.664 8.39306 20.832 12.3291 20.832C16.2651 20.832 19.4331 17.664 19.4331 13.728C19.4331 11.808 18.6651 10.176 17.5131 8.832L16.7451 10.08Z" fill="black"/>
<path d="M6.65918 3.23592L5.78602 1.6902L6.52209 2.94151L6.68707 3.22198L6.65918 3.23592ZM8.82946 6.88315L8.97335 7.12057L8.95083 7.12958L9.19385 7.61561L9.57785 8.38361L9.66114 8.5502L7.21021 4.21138L8.82946 6.88315ZM12.2575 13.1465L9.83464 8.85735L9.8782 8.83121L10.0686 9.17191L11.8926 12.4359L12.3266 13.2125L12.7643 12.438L14.0123 10.23L14.1068 10.0629L14.0725 9.90852L14.1504 10.0488L12.3737 13.1941L12.3531 13.2306C12.3432 13.2287 12.3312 13.2245 12.3184 13.216L12.3033 13.2059C12.2903 13.1875 12.2751 13.1675 12.2575 13.1465ZM19.4777 0.618081L14.5499 9.34169L14.5933 9.26105L15.2653 8.01305L15.5471 7.48964L15.5207 7.48083L15.648 7.24743L17.376 4.07943L17.5279 3.80098L17.5612 3.8276L17.8512 3.32007L19.0032 1.30407L19.4306 0.556H18.5691H5.99306H5.14733C5.1471 0.555039 5.14689 0.554094 5.1467 0.553167L5.20715 0.533016L5.24017 0.5H19.4269C19.4283 0.500489 19.4303 0.5013 19.4331 0.502591C19.4443 0.507817 19.4599 0.517944 19.4755 0.533553C19.4891 0.547104 19.4985 0.560635 19.5041 0.571295L19.4777 0.618081ZM22.0053 13.7124L22.0051 13.7202V13.728C22.0051 19.1159 17.6209 23.5 12.2331 23.5C6.8452 23.5 2.46106 19.1159 2.46106 13.728C2.46106 11.0132 3.56353 8.53531 5.40555 6.73132L5.64654 7.12292C3.99203 8.81767 2.90106 11.1328 2.90106 13.728C2.90106 18.9001 7.15692 23.156 12.3291 23.156C17.5012 23.156 21.7571 18.9001 21.7571 13.728C21.7571 11.1243 20.659 8.80256 18.9954 7.10635L19.1832 6.75752C21.0084 8.55894 22.0894 11.0211 22.0053 13.7124ZM15.3251 13.632V13.5834L15.6786 13.0177C15.7348 13.247 15.7651 13.4808 15.7651 13.728C15.7651 15.652 14.1729 17.164 12.3291 17.164C10.4051 17.164 8.89306 15.5718 8.89306 13.728C8.89306 13.5465 8.90925 13.3629 8.93723 13.1792L9.14106 13.5642V13.632C9.14106 15.3481 10.5169 16.724 12.2331 16.724C13.9492 16.724 15.3251 15.3481 15.3251 13.632ZM18.4931 13.728C18.4931 12.3101 18.0611 11.0561 17.3495 10.0518L17.5648 9.70187C18.4081 10.8581 18.9331 12.1983 18.9331 13.728C18.9331 17.3879 15.9889 20.332 12.3291 20.332C8.6692 20.332 5.72506 17.3879 5.72506 13.728C5.72506 12.2294 6.22842 10.8549 7.02478 9.76454L7.14684 10.029C6.42548 11.1047 5.97306 12.3656 5.97306 13.728C5.97306 17.1721 8.78892 19.988 12.2331 19.988C15.6772 19.988 18.4931 17.1721 18.4931 13.728Z" stroke="black"/>
</svg>